<svg width="40" height="40" viewBox="0 0 40 40" fill="none" xmlns="http://www.w3.org/2000/svg">
<path d="M32.1812 6.6665H7.81851C7.18227 6.6665 6.6665 7.18227 6.6665 7.8185V32.1812C6.6665 32.8174 7.18227 33.3332 7.81851 33.3332H32.1812C32.8174 33.3332 33.3332 32.8174 33.3332 32.1812V7.8185C33.3332 7.18227 32.8174 6.6665 32.1812 6.6665Z" stroke="#232323" stroke-width="1.5" stroke-miterlimit="10"/>
<path d="M16.9217 20.8377C17.0548 20.5658 17.1564 20.2709 17.2145 19.9626L17.7243 19.4665C17.7115 19.5236 17.6977 19.5813 17.6827 19.6397C17.5744 20.0251 17.4204 20.4141 17.219 20.8069C17.0184 21.1883 16.7717 21.5623 16.4686 21.9292C16.2546 22.1881 16.0209 22.4309 15.7662 22.6641L15.6615 22.5691L15.6615 22.5691L15.6598 22.5675C15.6594 22.5672 15.659 22.5668 15.6586 22.5665C15.6677 22.5556 15.6762 22.5464 15.6842 22.5386L15.6936 22.5294L15.7025 22.5197C15.7192 22.5018 15.7489 22.4709 15.7858 22.4326C15.8616 22.354 15.9676 22.244 16.0524 22.1495C16.2047 21.98 16.3564 21.7899 16.5073 21.5695C16.6585 21.3485 16.8005 21.1046 16.9217 20.8377ZM17.7497 19.3461H16.6174C16.4351 19.3461 16.289 19.3167 16.1672 19.2633C16.0276 19.2021 15.9147 19.1239 15.8139 19.0191C15.7141 18.9154 15.6403 18.7992 15.584 18.6554C15.5301 18.5177 15.5 18.3593 15.5 18.1747C15.5 18.0401 15.5259 17.9156 15.5773 17.7967C15.6327 17.6685 15.7028 17.5672 15.79 17.488L15.7964 17.4822L15.8025 17.4762C15.8808 17.4 15.996 17.3257 16.1539 17.2552C16.3104 17.1985 16.4644 17.1665 16.6371 17.1665C16.8548 17.1665 17.0307 17.2042 17.1743 17.2678C17.3232 17.3337 17.4343 17.4205 17.5186 17.526C17.6173 17.6497 17.6955 17.7944 17.7459 17.9627C17.8015 18.1486 17.8333 18.3501 17.8333 18.5589C17.8333 18.8058 17.8051 19.0678 17.7497 19.3461Z" fill="#232323" stroke="#232323"/>
<path d="M23.5882 20.8377C23.7214 20.5657 23.823 20.2706 23.8811 19.9622L24.3911 19.4651C24.3782 19.5226 24.3643 19.5808 24.3492 19.6397C24.2409 20.0251 24.0869 20.4141 23.8855 20.8069C23.6849 21.1884 23.4382 21.5624 23.1351 21.9292C22.9211 22.1881 22.6874 22.4309 22.4327 22.6641L22.328 22.5691L22.328 22.5691L22.3263 22.5675C22.3259 22.5672 22.3255 22.5668 22.3251 22.5665C22.3342 22.5556 22.3427 22.5464 22.3507 22.5386L22.3601 22.5294L22.3691 22.5197C22.3857 22.5017 22.4155 22.4709 22.4524 22.4325C22.5281 22.3539 22.6341 22.244 22.7189 22.1495C22.8712 21.98 23.0229 21.7899 23.1738 21.5695C23.325 21.3485 23.467 21.1046 23.5882 20.8377ZM24.4162 19.3461H23.2839C23.1016 19.3461 22.9555 19.3167 22.8337 19.2633C22.6941 19.2021 22.5812 19.1239 22.4804 19.0191C22.3806 18.9154 22.3068 18.7992 22.2505 18.6554C22.1966 18.5177 22.1665 18.3593 22.1665 18.1747C22.1665 18.0402 22.1924 17.9157 22.2438 17.7967C22.2992 17.6685 22.3693 17.5672 22.4565 17.488L22.4629 17.4822L22.469 17.4762C22.5473 17.3999 22.6625 17.3257 22.8204 17.2552C22.9769 17.1985 23.1309 17.1665 23.3036 17.1665C23.5213 17.1665 23.6972 17.2042 23.8408 17.2678C23.9897 17.3337 24.1007 17.4205 24.185 17.526C24.2838 17.6497 24.362 17.7944 24.4124 17.9627C24.468 18.1486 24.4998 18.3501 24.4998 18.5589C24.4998 18.8058 24.4716 19.0678 24.4162 19.3461Z" fill="#232323" stroke="#232323"/>
</svg>
