<svg width="3564" height="563" viewBox="0 0 3564 563" fill="none" xmlns="http://www.w3.org/2000/svg">
<path d="M41.1777 553.279V298.653C41.4824 296.639 41.3172 294.58 40.6952 292.642C40.0731 290.704 39.0115 288.941 37.5956 287.493C36.1798 286.045 34.4487 284.953 32.5413 284.305C30.6339 283.656 28.603 283.469 26.6113 283.759H0V211.414H77.4533C107.006 211.414 121.782 224.157 121.782 249.643V259.643L120.452 274.396H121.782C132.061 254.456 147.048 237.4 165.411 224.748C187.715 209.794 214.108 202.348 240.834 203.47C319.314 203.47 358.554 246.782 358.554 333.407V466.749C358.274 468.752 358.457 470.795 359.09 472.714C359.723 474.634 360.788 476.378 362.201 477.809C363.613 479.239 365.335 480.318 367.231 480.959C369.126 481.6 371.142 481.786 373.12 481.502H399.592V553.279H319.687C303.79 553.279 292.306 549.662 285.303 542.569C278.299 535.477 274.728 523.774 274.728 507.673V350.926C274.728 328.158 270.806 310.853 263.103 299.008C255.4 287.163 241.604 281.276 221.785 281.276C201.116 280.791 180.912 287.528 164.571 300.356C148.392 313.17 136.687 330.89 131.166 350.926C126.427 365.623 124.063 381 124.163 396.461V553.279H41.1777Z" fill="#441D60"/>
<path d="M432.787 382.204C432.787 329.529 448.661 286.548 480.408 253.26C512.155 219.971 553.402 203.422 604.151 203.611C650.838 203.611 687.44 218.907 713.958 249.5C740.476 280.093 753.712 318.843 753.665 365.749L751.634 397.24H518.784C519.609 410.178 522.962 422.82 528.648 434.435C534.334 446.051 542.241 456.407 551.908 464.904C570.981 481.047 595.198 489.618 620.048 489.019C636.39 488.906 652.558 485.607 667.668 479.302C680.188 474.687 691.982 468.261 702.683 460.223L714.588 450.861L749.603 509.8C748.273 511.148 746.312 512.992 743.651 515.474C738.115 520.03 732.265 524.178 726.143 527.887C717.173 533.675 707.813 538.818 698.131 543.278C686.06 548.545 673.544 552.7 660.735 555.69C645.469 559.467 629.81 561.372 614.095 561.364C559.892 561.364 516.123 544.058 482.789 509.446C466.445 492.724 453.594 472.84 445.003 450.978C436.412 429.117 432.258 405.727 432.787 382.204ZM521.445 338.017H667.668C667.886 319.624 661.117 301.849 648.76 288.368C643.101 282.127 636.198 277.173 628.508 273.835C620.818 270.497 612.516 268.851 604.151 269.005C584.569 268.287 565.4 274.817 550.228 287.375C535.361 300.561 525.237 318.374 521.445 338.017Z" fill="#441D60"/>
<path d="M895.203 553.25L814.529 295.929C813.292 292.054 810.765 288.734 807.381 286.536C803.997 284.337 799.964 283.395 795.971 283.872H786.727V211.527H844.291C855.506 210.787 866.682 213.481 876.365 219.258C884.657 226.049 890.19 235.693 891.912 246.352L941.493 436.009L948.146 472.182H949.476C951.277 459.952 953.921 447.864 957.39 436.009L1019.58 212.803H1093.67L1156.7 435.938L1163.7 472.111H1165.03C1166.51 459.9 1168.85 447.812 1172.03 435.938L1221.05 246.281C1222.77 235.622 1228.31 225.978 1236.6 219.187C1246.27 213.385 1257.46 210.69 1268.67 211.456H1326.24V283.73H1316.57C1312.61 283.387 1308.65 284.385 1305.3 286.567C1301.96 288.748 1299.42 291.991 1298.09 295.787L1217.34 553.25H1122.8L1065.24 358.274L1057.25 321.392H1055.99C1053.77 333.833 1050.9 346.145 1047.38 358.274L990.444 553.25H895.203Z" fill="#441D60"/>
<path d="M1339.97 382.174C1339.46 358.672 1343.66 335.309 1352.3 313.491C1360.94 291.673 1373.85 271.85 1390.25 255.215C1423.72 220.603 1468.49 203.297 1524.57 203.297C1541.94 203.32 1559.24 205.464 1576.11 209.68C1593.85 214.15 1610.36 222.61 1624.43 234.434C1631.47 239.762 1637.17 246.692 1641.07 254.663C1644.98 262.635 1646.98 271.425 1646.91 280.323V320.539H1572.82V301.743C1572.82 293.303 1567.77 286.707 1557.62 282.026C1547.24 277.268 1535.96 274.848 1524.57 274.933C1511.18 274.483 1497.85 276.933 1485.47 282.119C1473.09 287.306 1461.95 295.108 1452.78 305.006C1443.39 315.249 1436.08 327.269 1431.27 340.376C1426.46 353.483 1424.26 367.421 1424.77 381.394C1424.77 414.493 1435.02 440.286 1455.52 458.774C1475.95 477.273 1502.56 487.212 1529.96 486.577C1547.49 486.52 1564.79 482.498 1580.59 474.804C1593.98 468.984 1606.48 461.245 1617.71 451.824L1629.68 440.475L1664.7 499.415C1662.87 501.913 1660.88 504.282 1658.74 506.508C1656.08 509.132 1650.27 514.097 1641.24 521.189C1632.22 528.326 1622.59 534.618 1612.45 539.985C1599.76 546.289 1586.45 551.233 1572.75 554.738C1556.35 559.207 1539.44 561.449 1522.46 561.405C1468.26 561.405 1424.28 544.311 1390.53 510.125C1373.89 493.445 1360.82 473.48 1352.12 451.469C1343.43 429.458 1339.29 405.872 1339.97 382.174Z" fill="#441D60"/>
<path d="M1738.5 510.74C1721.65 494.013 1708.26 474.05 1699.12 452.019C1689.98 429.987 1685.28 406.331 1685.28 382.434C1685.28 358.537 1689.98 334.881 1699.12 312.85C1708.26 290.819 1721.65 270.855 1738.5 254.128C1774.74 221.543 1821.52 203.547 1869.98 203.547C1918.44 203.547 1965.22 221.543 2001.46 254.128C2018.39 270.802 2031.85 290.737 2041.05 312.759C2050.25 334.782 2055.01 358.446 2055.04 382.36C2055.07 406.273 2050.38 429.95 2041.24 451.999C2032.1 474.047 2018.69 494.02 2001.81 510.74C1965.5 543.322 1918.67 561.312 1870.16 561.312C1821.64 561.312 1774.81 543.322 1738.5 510.74ZM1769.94 382.434C1769.42 396.55 1771.73 410.628 1776.72 423.817C1781.72 437.007 1789.3 449.035 1799 459.177C1817.88 478.247 1843.46 488.956 1870.12 488.956C1896.78 488.956 1922.36 478.247 1941.24 459.177C1960.11 438.261 1970.58 410.949 1970.58 382.612C1970.58 354.274 1960.11 326.962 1941.24 306.047C1932.04 296.267 1920.95 288.521 1908.66 283.296C1896.36 278.072 1883.14 275.482 1869.81 275.69C1856.59 275.47 1843.47 278.036 1831.28 283.225C1819.09 288.415 1808.1 296.114 1799 305.834C1789.34 315.936 1781.79 327.907 1776.8 341.031C1771.8 354.155 1769.47 368.165 1769.94 382.221V382.434Z" fill="#441D60"/>
<path d="M2091.45 382.175C2091.45 328.555 2105.81 285.337 2134.52 252.522C2148.17 236.531 2165.16 223.818 2184.26 215.304C2203.36 206.79 2224.1 202.689 2244.96 203.299C2257.76 203.188 2270.53 204.641 2282.99 207.625C2292.74 209.83 2302.16 213.336 2311 218.051C2317.28 221.546 2323.25 225.58 2328.85 230.109C2332.88 233.138 2336.32 236.888 2339.01 241.174L2342.37 245.145L2343 225.073C2342.51 219.328 2343 232.662 2343 225.073V194.929V164.786C2343.28 162.782 2346.3 160.653 2345.67 158.733C2345.03 156.814 2347.08 157.717 2345.67 156.286C2344.25 154.856 2347.84 156.286 2343.71 153.35C2347.84 150.576 2343.22 153.498 2343 150.576V8H2373.56C2403.58 8 2427.04 92.5117 2427.04 122.868V466.578C2426.76 468.582 2426.94 470.624 2427.57 472.543C2428.21 474.462 2429.27 476.206 2430.68 477.637C2432.1 479.068 2433.82 480.147 2435.71 480.788C2437.61 481.428 2439.63 481.614 2441.6 481.33H2467.37V553.25H2390.34C2362.33 553.25 2348.32 541.642 2348.32 518.425V505.658H2346.99C2346.08 507.006 2344.89 508.992 2343.35 511.687C2340.01 516.452 2336.21 520.871 2332.01 524.879C2318.56 539.392 2301.39 549.829 2282.42 555.023C2269.25 559.144 2255.53 561.177 2241.74 561.052C2196.26 561.052 2159.87 544.502 2132.56 511.403C2105.25 478.304 2091.55 435.228 2091.45 382.175ZM2260.16 489.416C2271.53 489.6 2282.82 487.272 2293.22 482.593C2303.62 477.914 2312.89 470.997 2320.38 462.322C2336.68 444.26 2344.82 417.355 2344.82 381.608C2345.51 355.21 2337.88 329.276 2323.04 307.561C2316.23 297.509 2307 289.374 2296.24 283.916C2285.47 278.457 2273.52 275.855 2261.49 276.353C2249.94 276.148 2238.5 278.595 2228.02 283.508C2217.54 288.422 2208.3 295.675 2200.98 304.724C2184.87 323.637 2176.82 349.431 2176.82 382.104C2176.82 414.778 2184.55 440.784 2200 460.123C2207.02 469.483 2216.13 477.02 2226.59 482.113C2237.05 487.205 2248.55 489.709 2260.16 489.416Z" fill="#441D60"/>
<path d="M2500.57 382.204C2500.57 329.529 2516.47 286.548 2548.26 253.26C2580.05 219.971 2621.28 203.422 2671.93 203.611C2718.62 203.611 2755.22 218.907 2781.74 249.5C2808.26 280.093 2821.49 318.843 2821.45 365.749L2819.49 397.24H2586.57C2587.39 410.178 2590.74 422.82 2596.43 434.435C2602.12 446.051 2610.02 456.407 2619.69 464.904C2638.76 481.047 2662.98 489.618 2687.83 489.019C2704.17 488.906 2720.34 485.607 2735.45 479.302C2747.97 474.679 2759.76 468.253 2770.46 460.223L2782.37 450.861L2817.38 509.8C2816.05 511.148 2814.09 512.992 2811.43 515.474C2805.9 520.03 2800.05 524.178 2793.92 527.887C2784.95 533.675 2775.59 538.818 2765.91 543.278C2753.86 548.536 2741.37 552.69 2728.59 555.69C2713.32 559.461 2697.66 561.366 2681.95 561.364C2627.7 561.364 2583.93 544.058 2550.64 509.446C2534.27 492.738 2521.4 472.857 2512.8 450.993C2504.2 429.13 2500.04 405.733 2500.57 382.204ZM2589.23 338.017H2735.45C2735.69 319.633 2728.94 301.86 2716.61 288.368C2710.93 282.132 2704.02 277.183 2696.32 273.846C2688.62 270.509 2680.31 268.859 2671.93 269.005C2652.35 268.287 2633.18 274.817 2618.01 287.375C2603.14 300.561 2593.02 318.374 2589.23 338.017Z" fill="#441D60"/>
<path d="M2883.84 553.268V468.156H2965.21V553.268H2883.84Z" fill="#441D60"/>
<path d="M3037.14 454.519C3036.89 438.68 3040.55 423.027 3047.78 408.984C3054.62 395.814 3064.76 384.706 3077.19 376.783C3089.7 368.817 3102.87 361.981 3116.55 356.356C3131.12 350.588 3146.34 346.658 3161.86 344.654C3178.39 342.455 3192.32 340.894 3203.88 339.972C3215.43 339.05 3226.5 338.625 3237.98 338.625H3248.56V335.929C3248.56 311.814 3243.59 294.627 3233.64 284.366C3223.77 274.082 3207.94 268.975 3186.37 268.975C3176.02 268.926 3165.73 270.604 3155.91 273.94C3151.85 274.783 3148.19 277.009 3145.56 280.248C3142.92 283.487 3141.46 287.544 3141.41 291.742V309.829H3062.98V273.656C3062.61 259.852 3067.48 246.429 3076.56 236.136C3086.14 225.531 3098.55 217.967 3112.28 214.361C3125.27 210.497 3138.52 207.582 3151.92 205.638C3163.53 204.078 3175.22 203.296 3186.93 203.297C3283.99 203.297 3332.52 248.619 3332.52 339.263V466.576C3332.23 468.576 3332.4 470.617 3333.03 472.537C3333.65 474.458 3334.71 476.204 3336.12 477.637C3337.53 479.069 3339.24 480.15 3341.14 480.791C3343.03 481.432 3345.04 481.616 3347.02 481.329H3373.49V553.248H3297.79C3286.05 554.201 3274.41 550.458 3265.37 542.822C3261.84 539.295 3259.09 535.065 3257.27 530.401C3255.45 525.737 3254.6 520.74 3254.79 515.728L3255.49 500.975H3254.16L3250.87 507.643C3247.76 512.676 3244.22 517.423 3240.29 521.828C3234.6 528.662 3228.16 534.824 3221.11 540.198C3212.19 546.442 3202.36 551.229 3191.97 554.383C3171.54 561.077 3149.78 562.534 3128.65 558.623C3107.51 554.711 3087.67 545.554 3070.89 531.97C3059.82 522.51 3051.03 510.617 3045.18 497.195C3039.33 483.774 3036.58 469.178 3037.14 454.519ZM3121.87 450.547C3121.82 456.384 3122.97 462.167 3125.25 467.528C3127.53 472.889 3130.89 477.71 3135.11 481.683C3140.22 486.28 3146.18 489.802 3152.65 492.043C3159.12 494.283 3165.97 495.198 3172.79 494.734C3183.45 494.743 3193.97 492.174 3203.45 487.239C3212.94 482.305 3221.13 475.148 3227.34 466.363C3241.51 449.149 3249.35 427.494 3249.54 405.083V397.21H3234.97C3159.53 397.21 3121.83 414.989 3121.87 450.547Z" fill="#BE3084"/>
<path d="M3434.43 516.403V307.383C3434.71 305.386 3434.52 303.351 3433.89 301.438C3433.26 299.524 3432.21 297.785 3430.8 296.355C3429.4 294.926 3427.69 293.846 3425.8 293.199C3423.91 292.553 3421.91 292.358 3419.93 292.63H3393.46V220.285H3473.51C3488.91 220.285 3500.16 223.973 3507.26 231.349C3515.06 241.02 3518.85 253.377 3517.83 265.82V475.549C3517.55 477.553 3517.74 479.595 3518.37 481.514C3519 483.434 3520.07 485.178 3521.48 486.609C3522.89 488.04 3524.62 489.118 3526.51 489.759C3528.41 490.4 3530.42 490.586 3532.4 490.302H3558.8V562.221H3478.76C3463.35 562.221 3452.08 558.604 3445.07 551.511C3438.07 544.419 3434.43 532.503 3434.43 516.403ZM3438.42 165.033V86.3047H3511.18V165.033H3438.42Z" fill="#BE3084"/>
<path d="M2343.22 77.4922H2427.39L2427.04 200.819H2343.22V77.4922Z" fill="#441D60"/>
<path d="M2280.57 78.4766L2280.57 0.173515L2378.45 0.173516C2405.48 0.173517 2427.39 22.0844 2427.39 49.1129L2427.39 78.4766L2280.57 78.4766Z" fill="#441D60"/>
</svg>
