<?xml version="1.0" encoding="utf-8"?>
<!-- Generator: Adobe Illustrator 22.1.0, SVG Export Plug-In . SVG Version: 6.00 Build 0)  -->
<svg version="1.1" id="Layer_1" xmlns="http://www.w3.org/2000/svg" xmlns:xlink="http://www.w3.org/1999/xlink" x="0px" y="0px"
	 viewBox="0 0 373.4 157" enable-background="new 0 0 373.4 157" xml:space="preserve">
<g>
	<g>
		<path fill="#2F3634" stroke="#2F3634" stroke-width="0.35" stroke-miterlimit="10" d="M166.7,56.1V28.9h1.5v27.3H166.7z"/>
		<path fill="#2F3634" stroke="#2F3634" stroke-width="0.35" stroke-miterlimit="10" d="M180.5,56.1V40c0-2.8-0.8-4.2-2.8-4.2
			c-2.1,0-3.3,1.7-3.3,4.7v15.7h-1.5V34.6h1.4v1.8c0.6-1.4,1.9-2.2,3.4-2.2c2.9,0,4.3,1.8,4.3,5.7v16.1H180.5z"/>
		<path fill="#2F3634" stroke="#2F3634" stroke-width="0.35" stroke-miterlimit="10" d="M186.4,50.7V36h-1.7v-1.5h1.7v-5.1h1.5v5.1
			h2.9V36h-2.9v14.5c0,2.7,0.6,4.3,3.2,4.2v1.5C187.6,56.3,186.4,54.1,186.4,50.7z"/>
		<path fill="#2F3634" stroke="#2F3634" stroke-width="0.35" stroke-miterlimit="10" d="M198.3,56.4c-2.8,0-4.8-1.9-4.8-5.7V40
			c0-3.8,2-5.7,4.8-5.7c2.8,0,4.8,1.9,4.8,5.7v5.6h-8v5.2c0,2.7,1.2,4.2,3.2,4.2s3.2-1.5,3.2-4.2v-0.6h1.5v0.6
			C203.1,54.6,201.1,56.4,198.3,56.4z M201.5,40c0-2.7-1.2-4.2-3.2-4.2s-3.2,1.5-3.2,4.2V44h6.4V40z"/>
		<path fill="#2F3634" stroke="#2F3634" stroke-width="0.35" stroke-miterlimit="10" d="M208.3,42.4v13.7h-1.5V34.6h1.4v3.6
			c0.5-2.6,2.6-3.9,4.9-3.8v1.7C209.8,36,208.3,38.8,208.3,42.4z"/>
		<path fill="#2F3634" stroke="#2F3634" stroke-width="0.35" stroke-miterlimit="10" d="M223.3,56.1V40c0-2.8-0.8-4.2-2.8-4.2
			c-2.1,0-3.3,1.7-3.3,4.7v15.7h-1.5V34.6h1.4v1.8c0.6-1.4,1.9-2.2,3.4-2.2c2.9,0,4.3,1.8,4.3,5.7v16.1H223.3z"/>
		<path fill="#2F3634" stroke="#2F3634" stroke-width="0.35" stroke-miterlimit="10" d="M235.7,56.1c0,0-0.1-1-0.2-1.9
			c-0.7,1.3-1.9,2.2-3.8,2.2c-2.6,0-4.2-1.8-4.2-5.4c0-3.2,1.6-5.1,4.1-6.3c2.5-1.3,3.9-2.6,3.9-5c0-2.5-0.6-4.1-2.8-4.1
			c-2.1,0-2.9,1.6-2.9,4.1v0.8h-1.5c0-0.3,0-0.8,0-0.8c0-3.3,1.3-5.6,4.4-5.6c3.1,0,4.3,2.2,4.3,5.9v12.3c0,1.8,0.2,3.7,0.2,3.7
			H235.7z M235.5,43.2c-0.5,0.9-1.3,1.8-3,2.6c-2.5,1.3-3.3,2.8-3.3,5.1c0,2.6,1.1,4,2.8,4c1.8,0,3.5-1.7,3.5-4.2V43.2z"/>
		<path fill="#2F3634" stroke="#2F3634" stroke-width="0.35" stroke-miterlimit="10" d="M241,50.7V36h-1.7v-1.5h1.7v-5.1h1.5v5.1
			h2.9V36h-2.9v14.5c0,2.7,0.6,4.3,3.2,4.2v1.5C242.2,56.3,241,54.1,241,50.7z"/>
		<path fill="#2F3634" stroke="#2F3634" stroke-width="0.35" stroke-miterlimit="10" d="M248.5,30.9v-3.8h1.5v3.8H248.5z
			 M248.5,56.1V34.6h1.5v21.5H248.5z"/>
		<path fill="#2F3634" stroke="#2F3634" stroke-width="0.35" stroke-miterlimit="10" d="M258.6,56.4c-2.8,0-4.8-1.9-4.8-5.7V40
			c0-3.8,2-5.7,4.8-5.7c2.8,0,4.8,1.9,4.8,5.7v10.7C263.3,54.6,261.4,56.4,258.6,56.4z M261.8,40c0-2.7-1.2-4.2-3.2-4.2
			c-2,0-3.2,1.5-3.2,4.2v10.7c0,2.7,1.2,4.2,3.2,4.2c2,0,3.2-1.5,3.2-4.2V40z"/>
		<path fill="#2F3634" stroke="#2F3634" stroke-width="0.35" stroke-miterlimit="10" d="M274.7,56.1V40c0-2.8-0.8-4.2-2.8-4.2
			c-2.1,0-3.3,1.7-3.3,4.7v15.7h-1.5V34.6h1.4v1.8c0.6-1.4,1.9-2.2,3.4-2.2c2.9,0,4.3,1.8,4.3,5.7v16.1H274.7z"/>
		<path fill="#2F3634" stroke="#2F3634" stroke-width="0.35" stroke-miterlimit="10" d="M287,56.1c0,0-0.1-1-0.2-1.9
			c-0.7,1.3-1.9,2.2-3.8,2.2c-2.6,0-4.2-1.8-4.2-5.4c0-3.2,1.6-5.1,4.1-6.3c2.5-1.3,3.9-2.6,3.9-5c0-2.5-0.6-4.1-2.8-4.1
			c-2.1,0-2.9,1.6-2.9,4.1v0.8h-1.5c0-0.3,0-0.8,0-0.8c0-3.3,1.3-5.6,4.4-5.6c3.1,0,4.3,2.2,4.3,5.9v12.3c0,1.8,0.2,3.7,0.2,3.7H287
			z M286.8,43.2c-0.5,0.9-1.3,1.8-3,2.6c-2.5,1.3-3.3,2.8-3.3,5.1c0,2.6,1.1,4,2.8,4c1.8,0,3.5-1.7,3.5-4.2V43.2z"/>
		<path fill="#2F3634" stroke="#2F3634" stroke-width="0.35" stroke-miterlimit="10" d="M292.1,56.1V27.2h1.5v28.9H292.1z"/>
	</g>
	<g>
		<path fill="#2F3634" stroke="#2F3634" stroke-width="0.35" stroke-miterlimit="10" d="M166.9,91.3V64.1h1.5v25.8h5.6v1.5H166.9z"
			/>
		<path fill="#2F3634" stroke="#2F3634" stroke-width="0.35" stroke-miterlimit="10" d="M181.1,91.7c-2.8,0-4.8-1.9-4.8-5.7V75.2
			c0-3.8,2-5.7,4.8-5.7s4.8,1.9,4.8,5.7v5.6h-8v5.2c0,2.7,1.2,4.2,3.2,4.2s3.2-1.5,3.2-4.2v-0.6h1.5v0.6
			C185.8,89.8,183.9,91.7,181.1,91.7z M184.3,75.2c0-2.7-1.2-4.2-3.2-4.2s-3.2,1.5-3.2,4.2v4.1h6.4V75.2z"/>
		<path fill="#2F3634" stroke="#2F3634" stroke-width="0.35" stroke-miterlimit="10" d="M194.1,99.5c-2.9,0-4.6-2-4.6-4.8h1.5
			c0,2.3,1.3,3.3,3.1,3.3c2,0,3.2-1.5,3.2-4.2v-4c-0.5,1.2-1.8,1.9-3.3,1.9c-2.8,0-4.7-1.9-4.7-5.7V75.2c0-3.8,1.9-5.7,4.7-5.7
			c1.5,0,2.8,0.8,3.4,2.2v-1.8h1.4v24C198.8,97.6,196.9,99.5,194.1,99.5z M197.2,75.2c0-2.7-1.2-4.2-3.2-4.2s-3.2,1.5-3.2,4.2v10.7
			c0,2.7,1.2,4.2,3.2,4.2s3.2-1.5,3.2-4.2V75.2z"/>
		<path fill="#2F3634" stroke="#2F3634" stroke-width="0.35" stroke-miterlimit="10" d="M209.8,91.3c0,0-0.1-1-0.2-1.9
			c-0.7,1.3-1.9,2.2-3.8,2.2c-2.6,0-4.2-1.8-4.2-5.4c0-3.2,1.6-5.1,4.1-6.3c2.5-1.3,3.9-2.6,3.9-5c0-2.5-0.6-4.1-2.8-4.1
			c-2.1,0-2.9,1.6-2.9,4.1v0.8h-1.5c0-0.3,0-0.8,0-0.8c0-3.3,1.3-5.6,4.4-5.6c3.1,0,4.3,2.2,4.3,5.9v12.3c0,1.8,0.2,3.7,0.2,3.7
			H209.8z M209.6,78.5c-0.5,0.9-1.3,1.8-3,2.6c-2.5,1.3-3.3,2.8-3.3,5.1c0,2.6,1.1,4,2.8,4c1.8,0,3.5-1.7,3.5-4.2V78.5z"/>
		<path fill="#2F3634" stroke="#2F3634" stroke-width="0.35" stroke-miterlimit="10" d="M214.9,91.3V62.4h1.5v28.9H214.9z"/>
		<path fill="#2F3634" stroke="#2F3634" stroke-width="0.35" stroke-miterlimit="10" d="M231.6,65.5v25.8h-1.5V65.5h-4v-1.5h9.5v1.5
			H231.6z"/>
		<path fill="#2F3634" stroke="#2F3634" stroke-width="0.35" stroke-miterlimit="10" d="M241,91.7c-2.8,0-4.8-1.9-4.8-5.7V75.2
			c0-3.8,2-5.7,4.8-5.7c2.8,0,4.8,1.9,4.8,5.7v5.6h-8v5.2c0,2.7,1.2,4.2,3.2,4.2s3.2-1.5,3.2-4.2v-0.6h1.5v0.6
			C245.8,89.8,243.8,91.7,241,91.7z M244.2,75.2c0-2.7-1.2-4.2-3.2-4.2s-3.2,1.5-3.2,4.2v4.1h6.4V75.2z"/>
		<path fill="#2F3634" stroke="#2F3634" stroke-width="0.35" stroke-miterlimit="10" d="M253.6,91.7c-2.8,0-4.6-1.9-4.6-5.7V75.2
			c0-3.8,1.8-5.7,4.6-5.7c2.7,0,4.6,1.9,4.6,5.7v0.4h-1.5v-0.4c0-2.7-1.1-4.2-3-4.2c-2,0-3,1.5-3,4.2v10.7c0,2.7,1,4.2,3,4.2
			c1.9,0,3-1.5,3-4.2v-0.4h1.5v0.4C258.2,89.8,256.4,91.7,253.6,91.7z"/>
		<path fill="#2F3634" stroke="#2F3634" stroke-width="0.35" stroke-miterlimit="10" d="M269.2,91.3V75.2c0-2.8-0.8-4.2-2.8-4.2
			c-2.1,0-3.3,1.7-3.3,4.7v15.7h-1.5V62.4h1.5v9.2c0.5-1.3,1.8-2.1,3.3-2.1c2.9,0,4.3,1.8,4.3,5.7v16.1H269.2z"/>
		<path fill="#2F3634" stroke="#2F3634" stroke-width="0.35" stroke-miterlimit="10" d="M282.4,91.3V75.2c0-2.8-0.8-4.2-2.8-4.2
			c-2.1,0-3.3,1.7-3.3,4.7v15.7h-1.5V69.8h1.4v1.8c0.6-1.4,1.9-2.2,3.4-2.2c2.9,0,4.3,1.8,4.3,5.7v16.1H282.4z"/>
		<path fill="#2F3634" stroke="#2F3634" stroke-width="0.35" stroke-miterlimit="10" d="M292.3,91.7c-2.8,0-4.8-1.9-4.8-5.7V75.2
			c0-3.8,2-5.7,4.8-5.7c2.8,0,4.8,1.9,4.8,5.7v10.7C297,89.8,295.1,91.7,292.3,91.7z M295.5,75.2c0-2.7-1.2-4.2-3.2-4.2
			c-2,0-3.2,1.5-3.2,4.2v10.7c0,2.7,1.2,4.2,3.2,4.2c2,0,3.2-1.5,3.2-4.2V75.2z"/>
		<path fill="#2F3634" stroke="#2F3634" stroke-width="0.35" stroke-miterlimit="10" d="M300.7,91.3V62.4h1.5v28.9H300.7z"/>
		<path fill="#2F3634" stroke="#2F3634" stroke-width="0.35" stroke-miterlimit="10" d="M310.8,91.7c-2.8,0-4.8-1.9-4.8-5.7V75.2
			c0-3.8,2-5.7,4.8-5.7c2.8,0,4.8,1.9,4.8,5.7v10.7C315.6,89.8,313.6,91.7,310.8,91.7z M314,75.2c0-2.7-1.2-4.2-3.2-4.2
			c-2,0-3.2,1.5-3.2,4.2v10.7c0,2.7,1.2,4.2,3.2,4.2c2,0,3.2-1.5,3.2-4.2V75.2z"/>
		<path fill="#2F3634" stroke="#2F3634" stroke-width="0.35" stroke-miterlimit="10" d="M323.8,99.5c-2.9,0-4.6-2-4.6-4.8h1.5
			c0,2.3,1.3,3.3,3.1,3.3c2,0,3.2-1.5,3.2-4.2v-4c-0.5,1.2-1.8,1.9-3.3,1.9c-2.8,0-4.7-1.9-4.7-5.7V75.2c0-3.8,1.9-5.7,4.7-5.7
			c1.5,0,2.8,0.8,3.4,2.2v-1.8h1.4v24C328.5,97.6,326.6,99.5,323.8,99.5z M327,75.2c0-2.7-1.2-4.2-3.2-4.2c-2,0-3.2,1.5-3.2,4.2
			v10.7c0,2.7,1.2,4.2,3.2,4.2c2,0,3.2-1.5,3.2-4.2V75.2z"/>
		<path fill="#2F3634" stroke="#2F3634" stroke-width="0.35" stroke-miterlimit="10" d="M336.2,94.4c-0.6,3-2,5-4.5,5
			c-0.2,0-0.4,0-0.5,0v-1.5h0.3c2.4,0,3.1-2.2,3.3-3.8l0.5-2.9l-4-21.3h1.6l2.7,15.1c0.3,1.9,0.5,4.2,0.5,4.2s0.2-2.3,0.5-4.2
			l2.8-15.1h1.6L336.2,94.4z"/>
	</g>
	<g>
		<path fill="#2F3634" stroke="#2F3634" stroke-width="0.35" stroke-miterlimit="10" d="M174.5,129l-1.3-7.2h-5.7l-1.3,7.2h-1.5
			l4.8-27.3h1.6l4.9,27.3H174.5z M170.9,108.6c-0.3-1.8-0.5-5-0.5-5s-0.3,3.2-0.5,5l-2,11.7h5.2L170.9,108.6z"/>
		<path fill="#2F3634" stroke="#2F3634" stroke-width="0.35" stroke-miterlimit="10" d="M185.1,113.2v-1.1c0-2-0.9-3.5-2.8-3.5
			s-2.9,1.3-2.9,3.4c0,1.6,0.7,2.7,1.8,3.8l3.4,3.1c1.5,1.3,2.4,2.8,2.4,5.1c0,3.1-1.8,5.3-4.7,5.3c-3.4,0-4.6-2.5-4.6-5.4V123h1.5
			v0.9c0,2.4,1.1,4,3.1,4s3.1-1.5,3.1-3.8c0-1.6-0.7-2.8-1.8-3.9l-3.4-3.1c-1.5-1.3-2.4-2.7-2.4-5c0-3,1.6-4.9,4.5-4.9
			c2.8,0,4.3,2,4.3,5c0,0.3,0,1.1,0,1.1H185.1z"/>
		<path fill="#2F3634" stroke="#2F3634" stroke-width="0.35" stroke-miterlimit="10" d="M196.6,113.2v-1.1c0-2-0.9-3.5-2.8-3.5
			c-1.8,0-2.9,1.3-2.9,3.4c0,1.6,0.7,2.7,1.8,3.8l3.4,3.1c1.5,1.3,2.4,2.8,2.4,5.1c0,3.1-1.8,5.3-4.7,5.3c-3.4,0-4.6-2.5-4.6-5.4
			V123h1.5v0.9c0,2.4,1.1,4,3.1,4s3.1-1.5,3.1-3.8c0-1.6-0.7-2.8-1.8-3.9l-3.4-3.1c-1.5-1.3-2.4-2.7-2.4-5c0-3,1.6-4.9,4.5-4.9
			c2.8,0,4.3,2,4.3,5c0,0.3,0,1.1,0,1.1H196.6z"/>
		<path fill="#2F3634" stroke="#2F3634" stroke-width="0.35" stroke-miterlimit="10" d="M206,129.3c-2.8,0-4.8-1.9-4.8-5.7v-10.7
			c0-3.8,2-5.7,4.8-5.7c2.8,0,4.8,1.9,4.8,5.7v10.7C210.7,127.4,208.8,129.3,206,129.3z M209.2,112.9c0-2.7-1.2-4.2-3.2-4.2
			s-3.2,1.5-3.2,4.2v10.7c0,2.7,1.2,4.2,3.2,4.2s3.2-1.5,3.2-4.2V112.9z"/>
		<path fill="#2F3634" stroke="#2F3634" stroke-width="0.35" stroke-miterlimit="10" d="M218.6,129.3c-2.8,0-4.6-1.9-4.6-5.7v-10.7
			c0-3.8,1.8-5.7,4.6-5.7c2.7,0,4.6,1.9,4.6,5.7v0.4h-1.5v-0.4c0-2.7-1.1-4.2-3-4.2c-2,0-3,1.5-3,4.2v10.7c0,2.7,1,4.2,3,4.2
			c1.9,0,3-1.5,3-4.2v-0.4h1.5v0.4C223.2,127.4,221.3,129.3,218.6,129.3z"/>
		<path fill="#2F3634" stroke="#2F3634" stroke-width="0.35" stroke-miterlimit="10" d="M226.6,103.8V100h1.5v3.8H226.6z M226.6,129
			v-21.5h1.5V129H226.6z"/>
		<path fill="#2F3634" stroke="#2F3634" stroke-width="0.35" stroke-miterlimit="10" d="M239.1,129c0,0-0.1-1-0.2-1.9
			c-0.7,1.3-1.9,2.2-3.8,2.2c-2.6,0-4.2-1.8-4.2-5.4c0-3.2,1.6-5.1,4.1-6.3c2.5-1.3,3.9-2.6,3.9-5c0-2.5-0.6-4.1-2.8-4.1
			c-2.1,0-2.9,1.6-2.9,4.1v0.8h-1.5c0-0.3,0-0.8,0-0.8c0-3.3,1.3-5.6,4.4-5.6c3.1,0,4.3,2.2,4.3,5.9v12.3c0,1.8,0.2,3.7,0.2,3.7
			H239.1z M238.9,116.1c-0.5,0.9-1.3,1.8-3,2.6c-2.5,1.3-3.3,2.8-3.3,5.1c0,2.6,1.1,4,2.8,4c1.8,0,3.5-1.7,3.5-4.2V116.1z"/>
		<path fill="#2F3634" stroke="#2F3634" stroke-width="0.35" stroke-miterlimit="10" d="M244.5,123.6v-14.6h-1.7v-1.5h1.7v-5.1h1.5
			v5.1h2.9v1.5H246v14.5c0,2.7,0.6,4.3,3.2,4.2v1.5C245.7,129.2,244.5,127,244.5,123.6z"/>
		<path fill="#2F3634" stroke="#2F3634" stroke-width="0.35" stroke-miterlimit="10" d="M252,103.8V100h1.5v3.8H252z M252,129v-21.5
			h1.5V129H252z"/>
		<path fill="#2F3634" stroke="#2F3634" stroke-width="0.35" stroke-miterlimit="10" d="M262.1,129.3c-2.8,0-4.8-1.9-4.8-5.7v-10.7
			c0-3.8,2-5.7,4.8-5.7c2.8,0,4.8,1.9,4.8,5.7v10.7C266.9,127.4,264.9,129.3,262.1,129.3z M265.3,112.9c0-2.7-1.2-4.2-3.2-4.2
			c-2,0-3.2,1.5-3.2,4.2v10.7c0,2.7,1.2,4.2,3.2,4.2c2,0,3.2-1.5,3.2-4.2V112.9z"/>
		<path fill="#2F3634" stroke="#2F3634" stroke-width="0.35" stroke-miterlimit="10" d="M278.2,129v-16.1c0-2.8-0.8-4.2-2.8-4.2
			c-2.1,0-3.3,1.7-3.3,4.7V129h-1.5v-21.5h1.4v1.8c0.6-1.4,1.9-2.2,3.4-2.2c2.9,0,4.3,1.8,4.3,5.7V129H278.2z"/>
	</g>
</g>
<g>
	
		<ellipse transform="matrix(0.3182 -0.948 0.948 0.3182 -18.9547 131.7946)" fill="#970026" cx="82.2" cy="79.1" rx="66.1" ry="66.1"/>
	
		<ellipse transform="matrix(0.7071 -0.7071 0.7071 0.7071 -31.8532 81.2505)" fill="#FFFFFF" cx="82.2" cy="79.1" rx="59.5" ry="59.5"/>
</g>
<ellipse transform="matrix(8.069675e-02 -0.9967 0.9967 8.069675e-02 -3.2954 154.5778)" fill="#970026" cx="82.2" cy="79.1" rx="56.9" ry="56.9"/>
<g>
	<g>
		<path fill="#FFFFFF" d="M49,74.1c0,0-0.4-0.4-1-0.4h-2.5c-0.5,0-0.8,0.4-0.8,0.4s-0.5,0.5-0.5,1l-0.4,23.4c0,0.6,0.4,1,0.4,1
			s0.5,0.4,1.1,0.4h2.9c0.6,0,1.1-0.4,1.1-0.4s0.4-0.4,0.4-1.1l-0.4-23.4C49.3,74.6,49,74.1,49,74.1z M45.5,68.3H48
			c0.5,0,1-0.5,1-0.5s0.5-0.5,0.5-1.1v-3c0-0.5-0.5-1-0.5-1s-0.5-0.5-1-0.5h-2.4c-0.6,0-1,0.5-1,0.5S44,63.2,44,63.8v3
			c0,0.5,0.5,1.1,0.5,1.1S45,68.3,45.5,68.3z M99.5,76.4c0-3-1-2.8-3.1-2.8h-3.2c-2.7,0-2.4,0.2-2.4-2.4V68c0-2.1,0.2-3.1-2.8-3.1
			c-3,0-2.8,1-2.8,3.1v3.2c0,2.7,0.2,2.4-2.4,2.4h-3.2c-2.1,0-3.1-0.2-3.1,2.8c0,3,1,2.8,3.1,2.8h3.2c2.7,0,2.4-0.2,2.4,2.4v3.2
			c0,2.1-0.2,3.1,2.8,3.1c3,0,2.8-1,2.8-3.1v-3.2c0-2.7-0.2-2.4,2.4-2.4h3.2C98.5,79.1,99.5,79.4,99.5,76.4z M123,93.5l-10-22.6
			c-0.3-0.8-1.7-0.8-2.5-0.8c-0.9,0-2.2,0-2.5,0.8l-9.8,22.6c-0.2,0.6-0.5,1.1-0.5,1.8c0,0.7,1.6,0.9,2.3,0.9h1.5
			c1.1,0,1.6-0.3,2.2-1.8l6.7-15.7l6.9,15.7c0.6,1.5,1.1,1.8,2.3,1.8h1.5c0.8,0,2.3-0.2,2.3-0.9C123.6,94.7,123.3,94.2,123,93.5z
			 M74.5,57.7c-2.1,0-2,1-3.6,4.4L60.5,83.2c-2.6,5.3-5,8.9-5,9.9c0,1.6,2.9,1.8,4.1,1.8c2.1,0,2-1,3.6-4.4l10.3-21.2
			c2.6-5.3,5-8.8,5-9.9C78.6,57.9,75.7,57.7,74.5,57.7z"/>
	</g>
</g>
</svg>
