<?xml version="1.0" encoding="UTF-8"?><svg id="Layer_2" xmlns="http://www.w3.org/2000/svg" xmlns:xlink="http://www.w3.org/1999/xlink" viewBox="0 0 1161.74 673.85"><defs><style>.cls-1,.cls-2{fill:none;}.cls-3{fill:#3b5447;}.cls-2{clip-path:url(#clippath);}</style><clipPath id="clippath"><rect class="cls-1" width="1161.74" height="673.85"/></clipPath></defs><g id="Layer_1-2"><g class="cls-2"><path class="cls-3" d="m17.58,673.85c-4.56,0-8.45-3.47-8.89-8.09C-9.82,471.26,1.11,275.68,41.2,84.45c1.01-4.83,5.75-7.92,10.59-6.92,4.83,1.01,7.93,5.75,6.92,10.59C30.52,222.55,16.88,359.17,17.89,496.02c10.22-49.73,24.15-99.15,41.39-146.91,6.87-19.04,14.72-39.05,28.33-55.85,10.44-12.9,28.31-22.52,42.85-13.16,6.78,4.37,16.89,15.74,8.29,42.83-7.97,25.11-17.81,45.17-30.1,61.33-9.5,12.5-21.15,23.38-34.27,34.12,3.55,1.52,6.96,3.6,10.1,6.21,10.51,8.75,15.88,21.1,19.39,30.89,1.05,2.93,2.02,5.89,2.99,8.85,2.35,7.15,4.57,13.91,7.83,20,1.47,2.73,2.44,3.58,2.78,3.81.87-.42,3.03-2.47,5.08-6.87,8.91-19.11,13.73-39.88,18.84-61.86,7.7-33.13,15.66-67.4,38.74-96.08.34-.43.72-.81,1.12-1.16,2.01-6.51,6.67-11.13,12.03-13.83,10.14-5.1,22.98-3.29,32.81,4.2,44.11-63.74,64.07-142.91,79.33-212.71,1.05-4.82,5.83-7.88,10.64-6.82,4.82,1.05,7.88,5.82,6.82,10.65-3.58,16.38-7.42,33.26-11.76,50.36,0,.37-.04.75-.1,1.13-9.27,60.58-11.81,122.29-7.56,183.42,1,14.38,2.44,29.69,6.16,44.15,1.21,4.69,3.27,11.15,7.22,13.18.65.34,2.09.2,3.21-.15,8.18-50.12,16.7-101.92,35.92-150.47,2.13-5.39,4.61-11.02,9.34-15.54,6.59-6.29,15.95-8.13,23.29-4.58,11.65,5.63,11.95,20.15,12.05,24.92.04,2.14.07,4.28.09,6.4,4.4-10.16,9.53-20.02,15.59-29.44,3.99-6.2,8.68-12.46,15.91-16.24,8.33-4.35,20.56-4.34,27.83,4.1,3.18,3.7,4.55,7.92,5.14,12.12,1.55-3.05,3.2-6.06,4.97-9.02,2.91-4.88,6.36-9.87,11.83-13.25,7.5-4.63,17.03-4.32,23.17.75,6.26,5.17,7.19,13.23,7.59,16.68,1.51,12.99.96,25.97.42,38.52-.59,13.87-1.15,26.97.9,39.82.44,2.77,1.62,5.43,2.64,7.07.54-.56,1.14-1.27,1.72-2.1,3.98-5.69,5.69-15.02,7.5-24.9.57-3.09,1.15-6.3,1.83-9.46,6.66-31.28,13.56-63.64,34.18-92.88,5.05-7.16,12.16-16.01,22.38-20.83,2.15-1.02,4.38-1.79,6.63-2.34,6.92-2.69,15.64-2.47,22.34,1.52.29-1.77.61-3.53.96-5.29.94-4.77,5.52-7.91,10.3-7.09,4.79.83,8.04,5.34,7.31,10.15-.59,3.92-1.22,7.79-1.88,11.62-2.79,21.95-1.27,44.48,4.47,65.83.61,2.28,1.14,3.46,1.48,4.07.73-.41,1.87-1.3,2.95-2.69,4.6-5.92,7.11-13.75,9.47-21.93,13.01-44.98,19.56-88.55,20.04-133.2.05-4.36,3.23-8.05,7.54-8.74,4.31-.67,8.48,1.84,9.87,5.98,5.92,17.61,14.63,33.87,23.91,50.98,9.12-14.46,19.61-27.11,28.94-37.67,9.74-11.01,34.01-25.35,59.71-40.53,26.5-15.65,56.54-33.39,64.27-44.31,2.85-4.03,8.43-4.99,12.46-2.13,4.03,2.85,4.98,8.43,2.13,12.46-9.95,14.04-39.01,31.21-69.77,49.38-23.37,13.8-47.54,28.08-55.41,36.98-10.71,12.11-23.02,27.12-32.46,44.25,1.03,1.98,2.06,3.97,3.06,5.96,10.66,21.16,24.48,53.13,21.49,86.4-1.45,16.08-10.69,33.61-27.55,34.11-16.09.45-25.99-14.63-29.85-28.93-7.16-26.52-5.08-57.36,5.27-78.81,2.04-6.43,4.55-12.64,7.4-18.61-1.49-2.77-2.98-5.52-4.45-8.24-3.54-6.53-7.13-13.14-10.58-19.88-2.91,33.07-9.14,65.92-18.86,99.5-2.75,9.52-5.99,19.52-12.53,27.94-6.56,8.44-15.54,11.8-23.44,8.77-8.86-3.4-11.41-12.89-12.38-16.47-.76-2.83-1.46-5.69-2.09-8.56-2.16,6.83-4.47,13.54-6.95,20.17-1.98,5.31-4.28,10.89-8.55,15.54-5.92,6.44-14.27,9.21-21.78,7.22-6.18-1.63-14.22-6.93-17.35-22.89-1.54-7.81-2.21-15.75-2.03-23.66-5.93,16.53-9.59,33.71-13.18,50.57-.63,2.96-1.18,5.97-1.73,8.96-2.08,11.33-4.23,23.04-10.43,31.91-2.26,3.25-7.03,8.93-13.49,10.51-3.9.94-8,.16-11.55-2.2-6.46-4.3-10.51-13.5-11.65-20.71-2.33-14.62-1.7-29.25-1.1-43.39.53-12.4,1.02-24.11-.32-35.7-.45-3.88-1.05-4.78-1.23-4.96-.18-.02-1.35.06-2.37.69-2.2,1.36-4.12,4.26-5.86,7.19-12.27,20.6-18.67,44.46-22.76,68.3-1.37,13.92-3.24,27.79-5.58,41.53-.81,4.77-5.27,8.03-10.08,7.35-4.79-.68-8.17-5.06-7.62-9.88,1.54-13.4,3.16-27.44,5.56-41.58,1.88-19.4,2.79-38.9,2.7-58.33,0-2.13-.03-6.56-1.25-7.99-.82-.95-3.67-1.13-5.99.08-3.55,1.86-6.5,5.94-9.16,10.07-24.89,38.69-33.18,87.49-40.5,130.54-.81,4.76-5.26,8.03-10.05,7.36-4.79-.67-8.18-5.02-7.65-9.83l2.43-22.22c.02-.22.05-.43.09-.64,5.42-29.51,7.73-59.43,7.08-91.47-.16-8.1-1.93-9.18-1.95-9.19-.37-.12-1.91.22-3.16,1.41-2.11,2.02-3.6,5.5-5.06,9.19-18.44,46.57-26.8,97.17-34.8,146.17.27,3.83-1.41,7.7-4.75,10.61-5.48,4.79-15.9,7.53-24.38,3.16-10.36-5.31-14.31-16.6-16.37-24.63-4.08-15.86-5.63-32.14-6.69-47.37-2.34-33.68-2.66-67.53-.98-101.28-12.11,30.97-27.24,61.05-46.87,88.47,2.86,5.65,4.94,12.33,6.28,20.16,3.06,17.87,2.07,35.31.58,54.63-1.82,23.48-4.07,46.37-11.46,68.33-2.27,6.75-5.96,15-14.34,18.83-8.57,3.92-19.29,1.44-26.65-6.17-5.65-5.83-8.29-13.14-10.33-19.53-8.58-26.96-12.32-55.75-11.19-84.25-4.81,14.18-8.28,29.11-11.85,44.46-5.09,21.91-10.35,44.57-20.05,65.37-5.87,12.57-15.16,18.88-24.86,16.88-9.04-1.87-13.5-10.19-14.97-12.93-4.01-7.47-6.58-15.3-9.07-22.87-.92-2.81-1.84-5.61-2.84-8.39-2.74-7.65-6.81-17.2-14.01-23.19-5.23-4.36-13.71-6.97-19.78-3.53-.84.47-1.72.8-2.62.98-5.83,21.43-10.98,43.03-15.41,64.69-6.57,32.11-12.99,70.17-10.69,109,.14,2.35-.64,4.54-2.04,6.23,1.13,16.13,2.46,32.26,3.99,48.37.47,4.92-3.14,9.28-8.05,9.75-.29.03-.57.04-.86.04Zm173.71-321.53c-5.67,35.06-3.09,71.81,7.62,105.5,1.48,4.66,3.18,9.46,6.13,12.51,1.91,1.98,4.83,3.05,6.38,2.34,2.41-1.1,4.23-6.49,4.82-8.27,6.74-20.01,8.85-41.69,10.58-64,1.37-17.67,2.3-33.6-.18-49.08-.11.08-.21.16-.32.25-.39.29-.8.55-1.23.78-11.93,6.22-23.52,6.19-33.81-.02Zm-73.67-58.04c-4.91,0-11.61,4.68-16.1,10.23-11.86,14.64-19.06,33.06-25.41,50.67-6.3,17.46-12.16,35.15-17.54,52.99,14.06-11.21,26.38-22.26,35.86-34.74,11.03-14.51,19.95-32.8,27.29-55.92,2.78-8.75,3.99-19.22-.92-22.38-.92-.59-1.99-.86-3.17-.86Zm82.22,42.29c4.95,3.26,10.09,3.33,16.33.26,2.36-1.9,2.17-2.81,1.44-6.27l-.21-1.04c-.07-.34-.11-.68-.14-1.01-3.97-4.03-10.95-6.68-15.89-4.19-3.66,1.84-4.17,5.96-1.51,12.26Zm396.74-164.37c-3.48,1.89-6.64,5.73-9.9,12.03-9.55,18.47-12.6,39.88-8.59,60.28,1.12,5.72,3.06,8.71,4.38,9.06.73.19,2.54-.4,4.04-2.03,2.1-2.28,3.49-5.74,4.96-9.7,7.66-20.53,13.74-42.01,18.39-65.12-1.26-.43-2.43-1.14-3.43-2.14-2.16-2.16-5.97-2.99-9.86-2.37Zm113.62-6.47c-.43,1.23-.84,2.47-1.23,3.71-.14.45-.31.89-.52,1.31-8.67,17.52-10.42,44.39-4.35,66.86,2.12,7.85,6.87,15.72,11.91,15.72.05,0,.1,0,.14,0,5.37-.16,9.51-9.38,10.27-17.84,2.28-25.41-7.29-50.92-16.22-69.76Z"/></g><path class="cls-3" d="m507.69,467.83c0,25.32-15.37,42.24-38.83,42.24-11.65,0-20.81-4.66-26.87-13.04v42.24h-23.92v-113.69h23.92v12.27c5.9-8.39,15.06-13.05,26.4-13.05,23.45,0,39.3,17.24,39.3,43.02Zm-24.23-.78c0-13.36-8.39-22.99-20.66-22.99s-20.81,9.48-20.81,22.99,8.54,23.14,20.81,23.14,20.66-9.47,20.66-23.14Z"/><path class="cls-3" d="m601.95,474.67h-59.95c2.79,10.56,10.87,16.77,21.59,16.77,7.92,0,15.38-3.1,21.12-8.85l12.58,12.74c-8.38,9.32-20.65,14.75-35.72,14.75-26.72,0-43.64-17.08-43.64-42.4s17.55-42.87,43.02-42.87c29.36,0,43.02,19.41,41,49.86Zm-22.36-14.13c-.31-11.03-7.45-18.17-18.48-18.17s-17.7,7.14-19.57,18.17h38.05Z"/><path class="cls-3" d="m643.25,440.66c5.74-10.25,15.22-15.84,27.64-16v22.52c-17.09-1.55-27.64,7.61-27.64,21.74v40.23h-23.92v-83.56h23.92v15.07Z"/><path class="cls-3" d="m746.36,433.82l-8.23,16.31c-9.16-5.12-18.48-8.08-25.47-8.08-5.59,0-9.63,1.86-9.63,6.21,0,12.58,44.11,6.21,43.95,35.72,0,17.09-15.06,26.09-34.01,26.09-13.51,0-26.72-4.04-36.19-11.65l7.76-16.15c8.7,6.68,19.88,10.4,29.04,10.4,6.06,0,10.56-2.02,10.56-6.52,0-13.36-43.33-6.21-43.33-35.57,0-17.24,14.76-26.09,32.93-26.09,11.49,0,23.3,3.42,32.62,9.32Z"/><path class="cls-3" d="m847,467.37c0,25.47-18.02,42.71-44.73,42.71s-44.88-17.24-44.88-42.71,18.01-42.56,44.88-42.56,44.73,16.93,44.73,42.56Zm-65.54.31c0,13.67,8.39,22.99,20.81,22.99s20.81-9.32,20.81-22.99-8.54-22.99-20.81-22.99-20.81,9.32-20.81,22.99Z"/><path class="cls-3" d="m946.69,467.37c0,25.47-18.02,42.71-44.73,42.71s-44.89-17.24-44.89-42.71,18.02-42.56,44.89-42.56,44.73,16.93,44.73,42.56Zm-65.54.31c0,13.67,8.39,22.99,20.81,22.99s20.81-9.32,20.81-22.99-8.54-22.99-20.81-22.99-20.81,9.32-20.81,22.99Z"/><path class="cls-3" d="m1047.32,456.65v52.5h-23.92v-45.51c0-10.56-6.21-17.09-16.46-17.09-11.96.15-19.11,9.16-19.11,21.43v41.16h-23.92v-83.56h23.92v14.6c5.9-10.41,15.84-15.38,28.89-15.53,18.64,0,30.6,12.42,30.6,31.99Z"/><path class="cls-3" d="m1117.82,499.36c-5.59,6.99-14.6,10.87-26.25,10.87-17.86,0-28.73-10.87-28.73-26.09s11.34-25.01,31.84-25.16h22.98v-1.55c0-8.85-5.9-13.98-17.39-13.98-7.45,0-16.15,2.48-24.85,7.3l-7.45-16.46c12.42-6.21,23.14-9.63,37.74-9.63,22.36,0,35.25,11.18,35.41,29.97l.15,54.52h-23.45v-9.79Zm-.16-18.79v-7.45h-18.79c-9.16,0-13.67,2.8-13.67,9.47s4.97,10.56,13.05,10.56c10.09,0,18.01-5.44,19.41-12.58Z"/></g></svg>